<?xml version="1.0" standalone="no"?>
<!DOCTYPE svg PUBLIC "-//W3C//DTD SVG 20010904//EN"
 "http://www.w3.org/TR/2001/REC-SVG-20010904/DTD/svg10.dtd">
<svg version="1.0" xmlns="http://www.w3.org/2000/svg"
 width="1024.000000pt" height="1024.000000pt" viewBox="0 0 1024.000000 1024.000000"
 preserveAspectRatio="xMidYMid meet">

<g transform="translate(0.000000,1024.000000) scale(0.100000,-0.100000)"
fill="#000000" stroke="none">
<path d="M1268 6411 c-161 -52 -284 -187 -323 -355 -14 -58 -15 -183 -13 -969
l3 -902 23 -59 c58 -155 175 -266 327 -313 56 -17 116 -18 955 -18 843 0 899
1 963 19 171 47 314 204 346 380 7 40 11 347 10 935 0 977 2 947 -69 1065 -42
70 -129 152 -194 185 -105 52 -85 51 -1061 50 -852 0 -914 -1 -967 -18z m1032
-286 c33 -17 55 -53 65 -107 7 -37 28 -48 92 -48 15 0 39 -14 59 -34 29 -29
34 -41 34 -79 0 -72 -60 -127 -140 -127 l-30 0 0 -82 c0 -178 14 -517 20 -513
4 3 13 26 20 52 21 84 18 83 227 83 l183 0 0 45 c0 57 21 100 60 120 85 44
170 -17 170 -123 l0 -49 51 -5 c61 -6 100 -33 116 -81 27 -80 -30 -157 -117
-157 l-48 0 -4 -64 c-4 -73 -21 -100 -76 -123 -41 -17 -87 -5 -123 33 -22 23
-24 35 -27 140 l-4 114 -147 0 -147 0 -67 -144 -67 -145 0 -199 0 -199 46 -6
c87 -9 134 -87 99 -161 -22 -46 -60 -66 -124 -66 l-51 0 -6 -42 c-5 -27 -19
-54 -40 -77 -28 -31 -38 -36 -79 -36 -41 0 -51 5 -79 36 -21 22 -35 50 -39 76
l-7 41 -60 4 c-77 5 -110 34 -117 100 -6 54 7 82 50 108 27 17 51 20 165 20
l132 0 0 43 c0 23 -14 242 -30 487 -16 245 -30 449 -30 454 0 22 -11 -7 -49
-133 -22 -73 -46 -139 -52 -148 -11 -12 -48 -14 -241 -11 l-228 3 0 -105 c0
-88 -3 -110 -20 -138 -27 -44 -80 -67 -124 -52 -55 18 -79 52 -84 119 l-4 59
-48 6 c-173 23 -160 246 14 246 l36 0 0 50 c0 62 21 105 60 125 37 19 73 19
110 0 39 -20 53 -48 60 -115 l5 -55 181 -3 181 -2 41 153 c33 121 42 170 42
235 l0 82 -27 0 c-83 0 -141 42 -150 107 -11 81 43 133 137 133 l50 0 0 36 c0
104 92 164 180 119z"/>
<path d="M7290 6129 c-61 -24 -84 -82 -56 -137 20 -39 44 -52 93 -52 49 0 78
21 93 64 26 79 -53 154 -130 125z"/>
<path d="M4340 6112 c-76 -25 -107 -43 -161 -91 -57 -50 -102 -118 -130 -197
-29 -82 -37 -273 -15 -367 46 -197 176 -319 369 -348 199 -30 395 72 457 238
25 68 22 72 -72 74 -38 1 -73 2 -79 3 -5 1 -22 -21 -37 -49 -21 -38 -39 -55
-82 -78 -49 -26 -62 -28 -126 -25 -154 10 -241 111 -260 302 -13 129 30 261
108 331 103 92 251 88 337 -10 18 -21 38 -51 43 -67 10 -27 14 -29 47 -24 20
3 60 8 89 12 48 5 52 8 47 27 -30 103 -122 208 -222 255 -77 35 -228 42 -313
14z"/>
<path d="M6720 5920 l0 -90 -65 0 -65 0 0 -75 0 -75 65 0 65 0 0 -179 c0 -247
13 -302 81 -353 35 -27 133 -42 212 -34 l67 8 0 69 0 69 -69 0 c-53 0 -74 4
-92 19 -23 19 -24 23 -27 210 l-3 191 95 0 96 0 0 75 0 75 -95 0 -95 0 0 90 0
90 -85 0 -85 0 0 -90z"/>
<path d="M5223 5836 c-171 -56 -265 -230 -233 -431 22 -136 105 -242 221 -280
73 -25 217 -18 281 13 63 31 126 95 157 162 23 50 26 67 26 175 0 116 -1 123
-33 187 -36 74 -87 124 -161 159 -58 27 -196 36 -258 15z m180 -150 c41 -16
81 -64 97 -112 18 -54 9 -192 -16 -234 -38 -65 -106 -93 -188 -79 -88 16 -136
89 -136 210 0 88 12 133 49 173 49 53 127 71 194 42z"/>
<path d="M6104 5834 c-23 -8 -60 -31 -83 -50 l-41 -36 0 41 0 41 -80 0 -80 0
0 -495 0 -495 83 0 82 0 -1 179 -1 179 44 -34 c53 -41 98 -54 183 -54 119 0
208 61 263 179 25 53 31 80 35 160 9 200 -65 341 -207 389 -46 16 -147 14
-197 -4z m135 -149 c126 -65 136 -331 16 -405 -107 -66 -237 -7 -264 119 -28
133 10 250 94 287 40 18 119 17 154 -1z"/>
<path d="M7785 5836 c-22 -7 -54 -20 -71 -29 -47 -24 -120 -111 -139 -165 -25
-69 -31 -214 -12 -285 29 -111 80 -172 183 -219 71 -32 217 -32 290 0 66 30
120 85 144 149 l19 51 -22 5 c-12 3 -50 9 -83 13 -56 6 -63 4 -68 -13 -3 -11
-20 -32 -36 -48 -24 -23 -41 -29 -87 -33 -48 -3 -64 0 -92 20 -51 34 -70 66
-83 136 -14 73 0 171 30 212 68 91 201 93 254 5 18 -32 25 -36 52 -31 17 3 53
8 79 12 48 6 49 7 43 36 -8 42 -62 115 -106 144 -77 51 -205 69 -295 40z"/>
<path d="M7240 5475 l0 -355 85 0 85 0 0 355 0 355 -85 0 -85 0 0 -355z"/>
<path d="M5620 4445 l0 -485 85 0 85 0 0 485 0 485 -85 0 -85 0 0 -485z"/>
<path d="M4050 4440 l0 -480 90 0 91 0 -1 170 -2 170 134 4 c156 5 220 24 291
86 66 59 92 123 92 235 0 81 -3 95 -30 145 -17 30 -49 69 -73 87 -73 55 -118
63 -369 63 l-223 0 0 -480z m442 313 c54 -32 73 -67 73 -136 0 -48 -5 -69 -22
-93 -37 -52 -83 -67 -206 -68 l-108 -1 0 158 c0 86 1 160 1 163 0 4 52 4 115
1 86 -4 123 -10 147 -24z"/>
<path d="M6077 4656 c-97 -35 -157 -114 -157 -208 0 -129 52 -166 294 -212 91
-18 116 -35 116 -82 0 -57 -74 -95 -157 -79 -24 4 -51 21 -78 47 -36 37 -44
41 -85 39 -25 -1 -60 -5 -77 -9 l-33 -7 24 -50 c29 -63 78 -107 153 -135 49
-18 73 -21 153 -18 106 5 152 22 207 80 42 44 55 80 55 155 -1 130 -60 173
-281 204 -122 17 -161 63 -108 124 46 54 172 42 208 -19 l19 -32 77 8 c42 5
78 10 79 11 2 2 -7 25 -20 53 -29 62 -85 110 -150 129 -61 18 -188 19 -239 1z"/>
<path d="M6810 4661 c-131 -43 -203 -136 -219 -287 -30 -259 84 -420 304 -432
144 -8 245 39 299 138 15 28 25 54 21 58 -4 4 -38 12 -76 18 l-70 10 -15 -28
c-8 -15 -29 -35 -47 -44 -44 -23 -137 -22 -179 3 -37 21 -78 92 -78 135 l0 28
240 0 240 0 0 38 c0 107 -38 217 -96 282 -58 64 -104 83 -209 87 -49 1 -101
-1 -115 -6z m179 -148 c33 -25 59 -69 63 -108 l3 -29 -148 2 c-81 1 -148 4
-148 7 -8 36 35 105 85 137 38 24 106 19 145 -9z"/>
<path d="M4862 4388 c5 -278 8 -303 56 -367 36 -48 92 -71 180 -71 84 0 132
17 180 62 l32 32 0 -42 0 -42 85 0 85 0 0 345 0 345 -85 0 -85 0 0 -215 c0
-237 -5 -262 -58 -307 -62 -52 -159 -43 -199 18 -16 25 -18 56 -21 266 l-3
238 -86 0 -85 0 4 -262z"/>
</g>
</svg>
